{"title":"Tooh - Gori Tere Pyaar Mein ft. Imran Khan, Kareena Kapoor 1080p","uid":9051694,"size":107740827,"categoryP":"video","categoryS":"music_videos","magnet":"?xt=urn:btih:de34349b516cb8607bad7f37dd94a36256c42e13&amp;dn=Tooh+-+Gori+Tere+Pyaar+Mein+ft.+Imran+Khan%2C+Kareena+Kapoor+1080p&amp;tr=udp%3A%2F%2Ftracker.openbittorrent.com%3A80&amp;tr=udp%3A%2F%2Fopen.demonii.com%3A1337&amp;tr=udp%3A%2F%2Ftracker.coppersurfer.tk%3A6969&amp;tr=udp%3A%2F%2Fexodus.desync.com%3A6969","seeders":1,"leechers":0,"uploader":"Palash995","files":1,"time":1381873083,"description":"Here's bringing to you the exclusive song video 'Tooh' from the film 'Gori Tere Pyaar Mein'\nSong -- Tooh\nSingers --Mika Singh, Mamta Sharma and Shruti Pathak\nMusic -- Vishal &amp; Shekhar\nLyrics -- Anvita Dutt\nDirector -- Punit Malhotra\nProducers -- Karan Johar and Hiroo Yash Johar\nStudio -- Dharma Productions\nMusic Label -- Sony Music Entertainment Pvt. Ltd\n\nScreenshots:-\n &lt;a href=&quot;\nhttp://img405.imageshack.us/img405/40/2ybk.jpg&quot; rel=&quot;nofollow&quot; target=&quot;_NEW&quot;&gt;\nhttp://img405.imageshack.us/img405/40/2ybk.jpg&lt;/a&gt;\n &lt;a href=&quot;\nhttp://imageshack.us/a/img42/96/pirb.jpg&quot; rel=&quot;nofollow&quot; target=&quot;_NEW&quot;&gt;\nhttp://imageshack.us/a/img42/96/pirb.jpg&lt;/a&gt;\n &lt;a href=&quot;\nhttp://img89.imageshack.us/img89/1518/j4w0.jpg&quot; rel=&quot;nofollow&quot; target=&quot;_NEW&quot;&gt;\nhttp://img89.imageshack.us/img89/1518/j4w0.jpg&lt;/a&gt;\n &lt;a href=&quot;\nhttp://img19.imageshack.us/img19/769/nplh.jpg&quot; rel=&quot;nofollow&quot; target=&quot;_NEW&quot;&gt;\nhttp://img19.imageshack.us/img19/769/nplh.jpg&lt;/a&gt;\n\nMedia Info:-\n\nGeneral\nComplete name : Tooh - Gori Tere Pyaar Mein ft. Imran Khan, Kareena Kapoor 1080p {GreatPalash}.MP4\nFormat : MPEG-4\nFormat profile : Base Media / Version 2\nCodec ID : mp42\nFile size : 103 MiB\nDuration : 2mn 21s\nOverall bit rate mode : Variable\nOverall bit rate : 6 083 Kbps\nEncoded date : UTC 2013-10-07 11:42:00\nTagged date : UTC 2013-10-07 11:42:00\n\nVideo\nID : 1\nFormat : AVC\nFormat/Info : Advanced Video Codec\nFormat profile : &lt;a class=&quot;__cf_email__&quot; href=&quot;/cdn-cgi/l/email-protection&quot; data-cfemail=&quot;8fc7e6e8e7cfc3bba1bf&quot;&gt;[email&amp;#160;protected]&lt;/a&gt;&lt;script cf-hash='f9e31' type=&quot;text/javascript&quot;&gt;\n/* &lt;![CDATA[ */!function(){try{var t=&quot;currentScript&quot;in document?document.currentScript:function(){for(var t=document.getElementsByTagName(&quot;script&quot;),e=t.length;e--;)if(t[e].getAttribute(&quot;cf-hash&quot;))return t[e]}();if(t&amp;&amp;t.previousSibling){var e,r,n,i,c=t.previousSibling,a=c.getAttribute(&quot;data-cfemail&quot;);if(a){for(e=&quot;&quot;,r=parseInt(a.substr(0,2),16),n=2;a.length-n;n+=2)i=parseInt(a.substr(n,2),16)^r,e+=String.fromCharCode(i);e=document.createTextNode(e),c.parentNode.replaceChild(e,c)}}}catch(u){}}();/* ]]&gt; */&lt;/script&gt;\nFormat settings, CABAC : Yes\nFormat settings, ReFrames : 1 frame\nFormat settings, GOP : M=1, N=50\nCodec ID : avc1\nCodec ID/Info : Advanced Video Coding\nDuration : 2mn 21s\nBit rate : 5 889 Kbps\nMaximum bit rate : 8 822 Kbps\nWidth : 1 920 pixels\nHeight : 1 080 pixels\nDisplay aspect ratio : 16:9\nFrame rate mode : Constant\nFrame rate : 25.000 fps\nColor space : YUV\nChroma subsampling : 4:2:0\nBit depth : 8 bits\nScan type : Progressive\nBits/(Pixel*Frame) : 0.114\nStream size : 99.5 MiB (97%)\nTagged date : UTC 2013-10-07 11:42:11\n\nAudio\nID : 2\nFormat : AAC\nFormat/Info : Advanced Audio Codec\nFormat profile : LC\nCodec ID : 40\nDuration : 2mn 21s\nBit rate mode : Variable\nBit rate : 192 Kbps\nMaximum bit rate : 203 Kbps\nChannel(s) : 2 channels\nChannel positions : Front: L R\nSampling rate : 44.1 KHz\nCompression mode : Lossy\nStream size : 3.24 MiB (3%)\nEncoded date : UTC 2013-10-07 11:42:08\nTagged date : UTC 2013-10-07 11:42:11\n &lt;a href=&quot;\nhttp://imageshack.us/a/img89/4822/zka.gif&quot; rel=&quot;nofollow&quot; target=&quot;_NEW&quot;&gt;\nhttp://imageshack.us/a/img89/4822/zka.gif&lt;/a&gt;\n &lt;a href=&quot;\nhttp://imageshack.us/a/img200/185/tj8.gif&quot; rel=&quot;nofollow&quot; target=&quot;_NEW&quot;&gt;\nhttp://imageshack.us/a/img200/185/tj8.gif&lt;/a&gt;\n &lt;a href=&quot;\nhttp://imageshack.us/a/img593/9603/ua8.gif&quot; rel=&quot;nofollow&quot; target=&quot;_NEW&quot;&gt;\nhttp://imageshack.us/a/img593/9603/ua8.gif&lt;/a&gt;\n &lt;a href=&quot;\nhttp://imageshack.us/a/img707/5608/ysmp.png&quot; rel=&quot;nofollow&quot; target=&quot;_NEW&quot;&gt;\nhttp://imageshack.us/a/img707/5608/ysmp.png&lt;/a&gt;\n &lt;a href=&quot;\nhttp://smittech.smugmug.com/Other/Signature-11/i-ZGwJMx9/0/M/GreatPalash%20sig-M.gif&quot; rel=&quot;nofollow&quot; target=&quot;_NEW&quot;&gt;\nhttp://smittech.smugmug.com/Other/Signature-11/i-ZGwJMx9/0/M/GreatPalash%20sig-M.gif&lt;/a&gt;","torrent":{"xt":"urn:btih:de34349b516cb8607bad7f37dd94a36256c42e13","amp;dn":"Tooh+-+Gori+Tere+Pyaar+Mein+ft.+Imran+Khan%2C+Kareena+Kapoor+1080p","amp;tr":["udp%3A%2F%2Ftracker.openbittorrent.com%3A80","udp%3A%2F%2Fopen.demonii.com%3A1337","udp%3A%2F%2Ftracker.coppersurfer.tk%3A6969","udp%3A%2F%2Fexodus.desync.com%3A6969"],"infoHash":"de34349b516cb8607bad7f37dd94a36256c42e13","infoHashBuffer":{"type":"Buffer","data":[222,52,52,155,81,108,184,96,123,173,127,55,221,148,163,98,86,196,46,19]},"announce":[],"urlList":[]}}